<svg xmlns="http://www.w3.org/2000/svg" viewBox="0 0 100 100">
  <!-- アスパラガス: 緑の茎3本 -->
  <!-- 左 -->
  <rect x="25" y="25" width="10" height="60" rx="5" fill="#558b2f" transform="rotate(-5 30 55)"/>
  <!-- 鱗片 -->
  <path d="M24 50 Q20 44 24 40" stroke="#33691e" stroke-width="1.5" fill="#66bb6a"/>
  <path d="M24 62 Q20 56 24 52" stroke="#33691e" stroke-width="1.5" fill="#66bb6a"/>
  <!-- 穂先 -->
  <ellipse cx="28" cy="26" rx="6" ry="8" fill="#2e7d32"/>
  <!-- 中央 -->
  <rect x="44" y="18" width="12" height="66" rx="6" fill="#66bb6a"/>
  <path d="M42 42 Q38 36 42 32" stroke="#388e3c" stroke-width="1.5" fill="#81c784"/>
  <path d="M42 56 Q38 50 42 46" stroke="#388e3c" stroke-width="1.5" fill="#81c784"/>
  <path d="M42 70 Q38 64 42 60" stroke="#388e3c" stroke-width="1.5" fill="#81c784"/>
  <ellipse cx="50" cy="19" rx="7" ry="9" fill="#388e3c"/>
  <!-- 右 -->
  <rect x="65" y="22" width="10" height="62" rx="5" fill="#558b2f" transform="rotate(5 70 53)"/>
  <path d="M76 48 Q80 42 76 38" stroke="#33691e" stroke-width="1.5" fill="#66bb6a"/>
  <path d="M76 62 Q80 56 76 52" stroke="#33691e" stroke-width="1.5" fill="#66bb6a"/>
  <ellipse cx="72" cy="23" rx="6" ry="8" fill="#2e7d32"/>
</svg>
