<svg xmlns="http://www.w3.org/2000/svg" viewBox="0 0 100 100">
  <!-- レタス: 薄緑の丸い玉レタス -->
  <!-- 外葉 -->
  <circle cx="50" cy="54" r="36" fill="#aed581"/>
  <!-- 葉の波打ち -->
  <path d="M14 54 Q20 40 28 36 Q18 30 22 22 Q34 32 36 44" fill="#c5e1a5"/>
  <path d="M86 54 Q80 40 72 36 Q82 30 78 22 Q66 32 64 44" fill="#c5e1a5"/>
  <path d="M34 18 Q46 8 50 14 Q54 8 66 18 Q58 26 50 22 Q42 26 34 18" fill="#c5e1a5"/>
  <!-- 内側の葉 -->
  <circle cx="50" cy="52" r="28" fill="#c5e1a5"/>
  <circle cx="50" cy="50" r="20" fill="#dcedc8"/>
  <ellipse cx="50" cy="48" rx="12" ry="10" fill="#f1f8e9"/>
  <!-- 葉脈 -->
  <path d="M42 40 Q50 44 58 40" stroke="#aed581" stroke-width="1" fill="none"/>
  <path d="M38 50 Q50 54 62 50" stroke="#aed581" stroke-width="1" fill="none"/>
</svg>
