<svg xmlns="http://www.w3.org/2000/svg" viewBox="0 0 100 100">
  <!-- みずな: 細く切れ込んだ葉（羽状） -->
  <!-- 茎 -->
  <line x1="50" y1="88" x2="50" y2="48" stroke="#a5d6a7" stroke-width="3"/>
  <!-- 左の葉（羽状の切れ込み） -->
  <path d="M50 55 Q36 50 26 44 Q30 40 36 44 Q34 36 40 34 Q42 42 46 44" fill="#4caf50"/>
  <path d="M50 65 Q36 60 24 56 Q28 52 34 56 Q32 46 38 44 Q40 52 44 55" fill="#43a047"/>
  <path d="M50 75 Q38 72 28 68 Q32 64 38 68 Q36 58 42 56 Q44 64 47 67" fill="#4caf50"/>
  <!-- 右の葉 -->
  <path d="M50 55 Q64 50 74 44 Q70 40 64 44 Q66 36 60 34 Q58 42 54 44" fill="#4caf50"/>
  <path d="M50 65 Q64 60 76 56 Q72 52 66 56 Q68 46 62 44 Q60 52 56 55" fill="#43a047"/>
  <path d="M50 75 Q62 72 72 68 Q68 64 62 68 Q64 58 58 56 Q56 64 53 67" fill="#4caf50"/>
  <!-- 葉脈 -->
  <line x1="50" y1="48" x2="50" y2="88" stroke="#2e7d32" stroke-width="1"/>
</svg>
