<svg xmlns="http://www.w3.org/2000/svg" viewBox="0 0 100 100">
  <!-- しゅんぎく: 菊に似た切れ込みのある葉 -->
  <!-- 茎 -->
  <line x1="50" y1="90" x2="50" y2="55" stroke="#558b2f" stroke-width="3"/>
  <!-- 葉（切れ込みのある形） -->
  <path d="M50 55 Q36 48 28 38 Q34 36 38 42 Q40 32 46 30 Q48 38 50 38 Q52 28 58 28 Q60 36 62 40 Q66 34 72 36 Q66 46 50 55Z" fill="#558b2f"/>
  <path d="M50 72 Q38 65 30 55 Q36 54 40 60 Q42 50 48 48 Q50 56 50 55 Q50 46 56 44 Q58 52 60 56 Q64 50 70 52 Q64 62 50 72Z" fill="#66bb6a"/>
  <!-- 葉脈 -->
  <line x1="50" y1="55" x2="50" y2="38" stroke="#33691e" stroke-width="1"/>
  <line x1="50" y1="72" x2="50" y2="55" stroke="#33691e" stroke-width="1"/>
</svg>
